<?xml version="1.0" encoding="UTF-8"?>
<svg version="1.1" xmlns="http://www.w3.org/2000/svg" width="1024" height="1024">
<path d="M0 0 C1.02317322 0.00060425 2.04634644 0.0012085 3.1005249 0.00183105 C18.38842691 0.02634192 33.49707412 0.30942954 48.6875 2.1875 C49.75887207 2.31640625 50.83024414 2.4453125 51.93408203 2.578125 C106.8453669 9.36447175 160.1153567 24.86494055 210.6875 47.1875 C212.23679199 47.8690918 212.23679199 47.8690918 213.81738281 48.56445312 C229.69305404 55.59445727 245.21108072 63.32685034 260.6875 71.1875 C258.79577979 77.13355718 256.65004628 82.88188729 254.16015625 88.6015625 C253.81964737 89.39232681 253.47913849 90.18309113 253.12831116 90.99781799 C252.39175203 92.70734872 251.6535566 94.41617521 250.91387939 96.12435913 C249.30413658 99.84228339 247.70277944 103.56380108 246.10095215 107.28514099 C245.25343401 109.25402506 244.40552752 111.222742 243.55725098 113.19129944 C238.94222862 123.90498554 234.37560116 134.63912198 229.8125 145.375 C228.97277536 147.34978818 228.13301278 149.32456023 227.29321289 151.29931641 C225.60182027 155.2767575 223.91069033 159.25431015 222.21972656 163.23193359 C218.46029856 172.07457008 214.69735499 180.91571053 210.93466187 189.75695801 C209.27207347 193.66365629 207.60966178 197.57042977 205.94725037 201.47720337 C202.58524602 209.37812526 199.22303727 217.27896011 195.86050415 225.17965698 C187.63191109 244.51379637 179.40477511 263.84854719 171.1875 283.1875 C165.08753925 297.54345761 158.98294689 311.89743834 152.875 326.25 C152.45817963 327.22945587 152.04135925 328.20891174 151.61190796 329.2180481 C148.21022432 337.21131148 144.80830231 345.2044734 141.40637207 353.19763184 C138.43747116 360.17337432 135.46866247 367.14915604 132.5 374.125 C132.08293793 375.10501984 131.66587585 376.08503967 131.23617554 377.09475708 C125.5496362 390.45745593 119.86673662 403.82169593 114.1875 417.1875 C105.54459282 437.52815696 96.89065846 457.864116 88.23583984 478.19970703 C85.71562152 484.12133468 83.19565837 490.0430709 80.67578125 495.96484375 C80.2638855 496.93280884 79.85198975 497.90077393 79.4276123 498.89807129 C78.1809038 501.82787898 76.93420079 504.75768902 75.6875 507.6875 C71.07874089 518.51832093 66.46996897 529.34913637 61.86050415 540.17965698 C53.63191109 559.51379637 45.40477511 578.84854719 37.1875 598.1875 C31.08753925 612.54345761 24.98294689 626.89743834 18.875 641.25 C18.45817963 642.22945587 18.04135925 643.20891174 17.61190796 644.2180481 C14.21022432 652.21131148 10.80830231 660.2044734 7.40637207 668.19763184 C4.85806958 674.18513444 2.3098395 680.17266785 -0.23828125 686.1602478 C-1.07842698 688.13439926 -1.9185962 690.10854072 -2.75878906 692.08267212 C-7.11601581 702.32060548 -11.47155139 712.55924869 -15.8203125 722.80078125 C-16.54606085 724.50968439 -17.27180955 726.21858739 -17.99755859 727.92749023 C-19.05360864 730.41419636 -20.10949845 732.90096985 -21.16485596 735.38796997 C-24.9877101 744.39635943 -28.82743784 753.39701239 -32.703125 762.3828125 C-33.41171001 764.02766602 -34.12028762 765.67252274 -34.82885742 767.31738281 C-36.16344104 770.41488817 -37.50281996 773.51025941 -38.8449707 776.60449219 C-39.43977754 777.98365425 -40.03443181 779.36288213 -40.62890625 780.7421875 C-41.14912354 781.94343262 -41.66934082 783.14467773 -42.20532227 784.38232422 C-43.43487656 786.99492867 -43.43487656 786.99492867 -43.3125 789.1875 C-27.6571013 790.61601095 -12.02852343 791.74030796 3.6875 792.1875 C4.4520752 792.21086426 5.21665039 792.23422852 6.00439453 792.25830078 C53.58059548 793.52232577 106.64200243 787.76763087 148.6875 764.1875 C149.83089844 763.55457031 150.97429687 762.92164063 152.15234375 762.26953125 C157.76525141 759.09692199 157.76525141 759.09692199 162.9765625 755.32421875 C166.58857912 752.47728346 170.46119384 750.15687765 174.375 747.75 C196.16169288 734.15832101 218.25780512 718.33188268 236.125 699.75 C237.85815598 698.01684402 239.68938648 696.45543953 241.5625 694.875 C245.5245361 691.45497655 248.96600901 687.6939199 252.41796875 683.765625 C253.85672132 682.1312417 255.31556761 680.5141558 256.80078125 678.921875 C305.3033757 626.78380272 331.89630298 556.27389938 338.6875 486.1875 C338.82889404 484.83483032 338.82889404 484.83483032 338.97314453 483.45483398 C345.56291901 411.9280779 332.23231233 336.65859311 305.6875 270.1875 C303.62787218 269.96434352 303.62787218 269.96434352 302.31811523 271.42163086 C301.5399646 272.27833374 301.5399646 272.27833374 300.74609375 273.15234375 C300.16674072 273.78325928 299.5873877 274.4141748 298.99047852 275.06420898 C298.37487061 275.74427002 297.7592627 276.42433105 297.125 277.125 C295.85285192 278.51160076 294.57941626 279.89702134 293.3046875 281.28125 C292.37414551 282.29251953 292.37414551 282.29251953 291.42480469 283.32421875 C289.25622652 285.65004626 287.01796641 287.89627176 284.75 290.125 C282.1706565 292.66655092 279.72488654 295.24534831 277.375 298 C274.31249795 301.5764884 271.03469384 304.88139493 267.6875 308.1875 C264.40281368 311.43201281 261.18015951 314.6667241 258.1875 318.1875 C254.71139423 322.2770362 250.90500344 325.9971054 247.08984375 329.765625 C244.34424514 332.49058001 241.69480048 335.23773473 239.1875 338.1875 C235.71139423 342.2770362 231.90500344 345.9971054 228.08984375 349.765625 C225.34424514 352.49058001 222.69480048 355.23773473 220.1875 358.1875 C216.71139423 362.2770362 212.90500344 365.9971054 209.08984375 369.765625 C206.34424514 372.49058001 203.69480048 375.23773473 201.1875 378.1875 C197.71762751 382.26970293 193.92142339 385.98740301 190.10742188 389.74365234 C186.5921649 393.2244678 183.30426272 396.81680852 180.1875 400.6640625 C178.49903599 402.37890876 176.84744449 403.16230094 174.6875 404.1875 C178.35114101 394.15574548 182.25829417 384.27862215 186.51940918 374.48614502 C188.16845973 370.69416194 189.80277887 366.89583391 191.4375 363.09765625 C191.95555206 361.89456818 191.95555206 361.89456818 192.48406982 360.66717529 C196.53466371 351.24333985 200.48656231 341.77844042 204.4375 332.3125 C210.65445254 317.4233977 216.90333806 302.54836378 223.1875 287.6875 C229.38352285 273.03301793 235.55166237 258.36728323 241.6875 243.6875 C248.218038 228.06340953 254.78840287 212.45658104 261.38323975 196.85952759 C267.22406461 183.04424116 273.03024732 169.21489533 278.8125 155.375 C287.34959399 134.941689 296.00052226 114.5574813 304.6875 94.1875 C309.08491067 95.82188254 312.24585369 98.05674825 315.75 101.125 C316.31654297 101.61444092 316.88308594 102.10388184 317.46679688 102.6081543 C319.21479257 104.12598426 320.95215556 105.65523306 322.6875 107.1875 C323.20296387 107.63834961 323.71842773 108.08919922 324.24951172 108.55371094 C336.56114109 119.3590235 347.42635236 131.32937074 357.31054688 144.37792969 C358.70792774 146.21434581 360.12582231 148.03342269 361.546875 149.8515625 C417.21657233 221.7393338 449.31343319 315.31196255 458.6875 405.1875 C458.77470306 406.02114075 458.86190613 406.85478149 458.95175171 407.71368408 C460.62296127 424.21478791 461.05171557 440.60934135 461 457.1875 C460.99784485 458.43751801 460.9956897 459.68753601 460.99346924 460.97543335 C460.94033304 480.22931877 460.42572893 499.10846553 457.6875 518.1875 C457.54184601 519.22508453 457.54184601 519.22508453 457.39324951 520.28363037 C451.28775879 563.65646499 439.77113466 605.2374637 421.6875 645.1875 C421.27677246 646.1038623 420.86604492 647.02022461 420.44287109 647.96435547 C401.28752554 690.43321462 374.31079208 729.2694331 342.99072266 763.64916992 C341.53971409 765.24829395 340.09600415 766.85410077 338.6628418 768.46923828 C333.02204605 774.81884238 327.1428186 780.88332688 321.125 786.875 C320.23103516 787.77283203 319.33707031 788.67066406 318.41601562 789.59570312 C313.33535459 794.66893085 308.15818724 799.53872821 302.6875 804.1875 C301.67799361 805.06465344 300.66885207 805.94222705 299.66015625 806.8203125 C285.07928639 819.30701716 269.72515187 830.64228194 253.6875 841.1875 C252.88924805 841.71311523 252.09099609 842.23873047 251.26855469 842.78027344 C194.92264101 879.53744314 130.25722748 900.51817656 63.6875 908.1875 C62.70007813 908.30609375 61.71265625 908.4246875 60.6953125 908.546875 C-0.31878779 915.56767558 -60.17685013 906.74078204 -119.3125 892.1875 C-119.9956427 892.01972046 -120.6787854 891.85194092 -121.38262939 891.67907715 C-145.85312626 885.64680418 -170.67554431 878.41492768 -193.3125 867.1875 C-194.36050781 866.67703125 -195.40851563 866.1665625 -196.48828125 865.640625 C-212.99196578 857.14910267 -212.99196578 857.14910267 -215.3125 850.1875 C-214.31380031 847.38248787 -213.23859794 844.72431898 -212.03515625 842.0078125 C-211.49976982 840.76852997 -211.49976982 840.76852997 -210.9535675 839.50421143 C-209.76967502 836.76965273 -208.57230381 834.0412101 -207.375 831.3125 C-206.53960451 829.38923522 -205.70514343 827.46556431 -204.87158203 825.54150391 C-203.16864744 821.61463158 -201.46053053 817.69008231 -199.74755859 813.76757812 C-196.68714019 806.75894077 -193.6525548 799.73922831 -190.61956787 792.71868896 C-189.66820986 790.51787536 -188.71536581 788.31771003 -187.76220703 786.11767578 C-182.23412217 773.35267439 -176.75879128 760.56527169 -171.28591919 747.77651978 C-162.17674433 726.49088904 -153.01139728 705.2307952 -143.78173828 683.99713135 C-137.77913167 670.18705308 -131.79702671 656.36904474 -125.87811279 642.52288818 C-120.24071476 629.33546657 -114.56079963 616.16661906 -108.875 603 C-101.51422409 585.95422839 -94.18338845 568.89594866 -86.87860107 551.82611084 C-77.90472296 530.85597723 -68.87278131 509.91217647 -59.78009033 488.99328613 C-53.77803052 475.18449056 -47.79647865 461.36776266 -41.87811279 447.52288818 C-36.24071476 434.33546657 -30.56079963 421.16661906 -24.875 408 C-17.51422409 390.95422839 -10.18338845 373.89594866 -2.87860107 356.82611084 C6.09527704 335.85597723 15.12721869 314.91217647 24.21990967 293.99328613 C30.22196948 280.18449056 36.20352135 266.36776266 42.12188721 252.52288818 C48.21731768 238.26400295 54.36283212 224.02693101 60.51098633 209.79071045 C66.11167884 196.82015625 71.69749069 183.84337365 77.2578125 170.85546875 C77.66668166 169.90056518 77.66668166 169.90056518 78.08381081 168.92637062 C81.00214829 162.11052452 83.91836081 155.29377721 86.83178711 148.47583008 C87.79538598 146.22345971 88.75900788 143.97109919 89.72265625 141.71875 C90.3666185 140.20942146 90.3666185 140.20942146 91.02359009 138.66960144 C93.82157241 132.13338085 96.71940542 125.64822121 99.6875 119.1875 C92.84011747 116.90503916 85.82737927 116.09889864 78.6875 115.1875 C77.67124542 115.05776794 77.67124542 115.05776794 76.63446045 114.92541504 C-0.50250973 105.18970277 -91.53813102 108.36246825 -155.50390625 157.8671875 C-160.63429581 162.10564564 -165.49026129 166.60461328 -170.3125 171.1875 C-170.95832031 171.76886719 -171.60414063 172.35023438 -172.26953125 172.94921875 C-176.28389853 176.68154617 -179.59144854 180.94063102 -182.875 185.3125 C-183.34180176 185.91102783 -183.80860352 186.50955566 -184.28955078 187.1262207 C-185.76358932 189.06668013 -185.76358932 189.06668013 -187.3125 192.1875 C-186.22495234 195.90041122 -184.31266418 199.0009857 -182.2578125 202.2578125 C-181.649375 203.22654297 -181.0409375 204.19527344 -180.4140625 205.19335938 C-179.76179687 206.22267578 -179.10953125 207.25199219 -178.4375 208.3125 C-177.42429687 209.9222168 -177.42429687 209.9222168 -176.390625 211.56445312 C-174.36869108 214.77475009 -172.34133139 217.98155879 -170.3125 221.1875 C-169.26806089 222.84103956 -168.22377406 224.49467531 -167.1796875 226.1484375 C-165.74515841 228.41997682 -164.31015392 230.6912074 -162.87353516 232.96142578 C-158.8294116 239.35531298 -154.818604 245.76973859 -150.8125 252.1875 C-144.34749255 262.54314288 -137.84198379 272.87242276 -131.3125 283.1875 C-124.09772672 294.58517647 -116.90638702 305.99694492 -109.77416992 317.4465332 C-106.9078113 322.04695858 -104.03225317 326.63944673 -101.1015625 331.19921875 C-100.62541504 331.94469971 -100.14926758 332.69018066 -99.65869141 333.45825195 C-98.78475541 334.82431186 -97.90456407 336.18639749 -97.01708984 337.54370117 C-96.05442503 339.05437291 -95.17329473 340.61654962 -94.3125 342.1875 C-94.6425 342.8475 -94.9725 343.5075 -95.3125 344.1875 C-96.9376777 342.86704312 -98.56284816 341.54657734 -100.18798828 340.22607422 C-101.62374161 339.05958651 -103.0596172 337.89324926 -104.49560547 336.72705078 C-108.14831724 333.76026445 -111.79939426 330.79153867 -115.4453125 327.81640625 C-121.75293198 322.67336492 -128.07970145 317.56442297 -134.5 312.5625 C-139.586022 308.59875249 -144.52883485 304.49760256 -149.42749023 300.30541992 C-153.79203203 296.58703824 -158.27488696 293.04244744 -162.80078125 289.5234375 C-168.28183186 285.2470134 -173.6336285 280.82156491 -178.98632812 276.38623047 C-183.46009518 272.68817325 -187.98039721 269.06271363 -192.5625 265.5 C-197.62983567 261.55873892 -202.55081234 257.47886571 -207.42773438 253.30517578 C-211.79223614 249.58692563 -216.27497739 246.04237713 -220.80078125 242.5234375 C-226.28183186 238.2470134 -231.6336285 233.82156491 -236.98632812 229.38623047 C-241.46009518 225.68817325 -245.98039721 222.06271363 -250.5625 218.5 C-255.62983567 214.55873892 -260.55081234 210.47886571 -265.42773438 206.30517578 C-269.79223614 202.58692563 -274.27497739 199.04237713 -278.80078125 195.5234375 C-284.27362039 191.25342015 -289.61778196 186.83507042 -294.9621582 182.40600586 C-300.24824616 178.03608451 -305.60331368 173.76488675 -311.0234375 169.5625 C-313.2294973 167.84843915 -315.33459406 166.16540594 -317.3125 164.1875 C-317.03666837 160.26551905 -314.63550359 157.65377725 -312.3125 154.625 C-311.90878174 154.0983374 -311.50506348 153.5716748 -311.08911133 153.02905273 C-309.83931788 151.40788932 -308.57813552 149.79631651 -307.3125 148.1875 C-306.59449219 147.27226562 -305.87648438 146.35703125 -305.13671875 145.4140625 C-296.07850367 134.12027331 -286.02755348 123.80143884 -275.83914185 113.53890991 C-274.79616364 112.48787999 -273.75466924 111.43537512 -272.71481323 110.3812561 C-265.91897418 103.5021842 -258.89436359 97.21057049 -251.3125 91.1875 C-250.28486657 90.324211 -249.26144986 89.45582103 -248.24609375 88.578125 C-228.97883839 72.05471978 -207.38137393 58.60370024 -185.3125 46.1875 C-184.68730469 45.83091309 -184.06210937 45.47432617 -183.41796875 45.10693359 C-138.79793941 19.74227722 -87.16677671 5.9871083 -36.3125 1.1875 C-35.30227783 1.09106201 -34.29205566 0.99462402 -33.2512207 0.89526367 C-22.17882271 -0.03066551 -11.10415697 -0.01209335 0 0 Z " fill="#FCD516" transform="translate(440.3125,56.8125)"/>
<path d="M0 0 C4.39741067 1.63438254 7.55835369 3.86924825 11.0625 6.9375 C11.62904297 7.42694092 12.19558594 7.91638184 12.77929688 8.4206543 C14.52729257 9.93848426 16.26465556 11.46773306 18 13 C18.51546387 13.45084961 19.03092773 13.90169922 19.56201172 14.36621094 C31.87364109 25.1715235 42.73885236 37.14187074 52.62304688 50.19042969 C54.02042774 52.02684581 55.43832231 53.84592269 56.859375 55.6640625 C112.52907233 127.5518338 144.62593319 221.12446255 154 311 C154.08720306 311.83364075 154.17440613 312.66728149 154.26425171 313.52618408 C155.93546127 330.02728791 156.36421557 346.42184135 156.3125 363 C156.31034485 364.25001801 156.3081897 365.50003601 156.30596924 366.78793335 C156.25283304 386.04181877 155.73822893 404.92096553 153 424 C152.90289734 424.69172302 152.80579468 425.38344604 152.70574951 426.09613037 C146.60025879 469.46896499 135.08363466 511.0499637 117 551 C116.58927246 551.9163623 116.17854492 552.83272461 115.75537109 553.77685547 C96.60002554 596.24571462 69.62329208 635.0819331 38.30322266 669.46166992 C36.85221409 671.06079395 35.40850415 672.66660077 33.9753418 674.28173828 C28.33454605 680.63134238 22.4553186 686.69582688 16.4375 692.6875 C15.54353516 693.58533203 14.64957031 694.48316406 13.72851562 695.40820312 C8.64785459 700.48143085 3.47068724 705.35122821 -2 710 C-3.00950639 710.87715344 -4.01864793 711.75472705 -5.02734375 712.6328125 C-19.60821361 725.11951716 -34.96234813 736.45478194 -51 747 C-52.19737793 747.78842285 -52.19737793 747.78842285 -53.41894531 748.59277344 C-109.76485899 785.34994314 -174.43027252 806.33067656 -241 814 C-241.98742187 814.11859375 -242.97484375 814.2371875 -243.9921875 814.359375 C-292.69769251 819.96384407 -348.8798277 818.79738744 -396 804 C-395.38092248 800.33369452 -394.36037196 797.19745849 -392.875 793.79296875 C-392.42447266 792.75205078 -391.97394531 791.71113281 -391.50976562 790.63867188 C-391.01154297 789.49978516 -390.51332031 788.36089844 -390 787.1875 C-389.1925977 785.3234236 -388.38523358 783.4593304 -387.57897949 781.59475708 C-386.99656447 780.24791717 -386.41362251 778.90130501 -385.8302002 777.55490112 C-382.37742161 769.58027077 -378.98706328 761.57921901 -375.59408569 753.57901001 C-373.77958458 749.30181623 -371.96203191 745.02591986 -370.14453125 740.75 C-369.7920784 739.92079544 -369.43962555 739.09159088 -369.07649231 738.23725891 C-368.38340454 736.60672648 -367.69028492 734.97620759 -366.99713135 733.34570312 C-366.34789457 731.81840509 -365.69876006 730.29106357 -365.04974365 728.76367188 C-363.09943683 724.17416393 -361.14470107 719.58657221 -359.1875 715 C-358.71441406 713.88625 -358.24132812 712.7725 -357.75390625 711.625 C-355.34140945 705.98173264 -352.81287879 700.45528007 -350 695 C-349.33282959 695.05534912 -348.66565918 695.11069824 -347.97827148 695.16772461 C-332.32884654 696.45278804 -316.69748531 697.54778474 -301 698 C-300.2383252 698.02336426 -299.47665039 698.04672852 -298.69189453 698.07080078 C-251.11244013 699.334348 -198.04868421 693.58191802 -156 670 C-154.28490234 669.05060547 -154.28490234 669.05060547 -152.53515625 668.08203125 C-146.92224859 664.90942199 -146.92224859 664.90942199 -141.7109375 661.13671875 C-138.09892088 658.28978346 -134.22630616 655.96937765 -130.3125 653.5625 C-108.52580712 639.97082101 -86.42969488 624.14438268 -68.5625 605.5625 C-66.82934402 603.82934402 -64.99811352 602.26793953 -63.125 600.6875 C-59.1629639 597.26747655 -55.72149099 593.5064199 -52.26953125 589.578125 C-50.83077868 587.9437417 -49.37193239 586.3266558 -47.88671875 584.734375 C0.6158757 532.59630272 27.20880298 462.08639938 34 392 C34.0942627 391.09822021 34.18852539 390.19644043 34.28564453 389.26733398 C40.87541901 317.7405779 27.54481233 242.47109311 1 176 C-1.05962782 175.77684352 -1.05962782 175.77684352 -2.36938477 177.23413086 C-2.88815186 177.80526611 -3.40691895 178.37640137 -3.94140625 178.96484375 C-4.81043579 179.91121704 -4.81043579 179.91121704 -5.69702148 180.87670898 C-6.62043335 181.89680054 -6.62043335 181.89680054 -7.5625 182.9375 C-8.83464808 184.32410076 -10.10808374 185.70952134 -11.3828125 187.09375 C-12.00317383 187.76792969 -12.62353516 188.44210937 -13.26269531 189.13671875 C-15.43127348 191.46254626 -17.66953359 193.70877176 -19.9375 195.9375 C-22.5168435 198.47905092 -24.96261346 201.05784831 -27.3125 203.8125 C-30.37500205 207.3889884 -33.65280616 210.69389493 -37 214 C-40.28468632 217.24451281 -43.50734049 220.4792241 -46.5 224 C-49.97610577 228.0895362 -53.78249656 231.8096054 -57.59765625 235.578125 C-60.34325486 238.30308001 -62.99269952 241.05023473 -65.5 244 C-68.97610577 248.0895362 -72.78249656 251.8096054 -76.59765625 255.578125 C-79.34325486 258.30308001 -81.99269952 261.05023473 -84.5 264 C-87.97610577 268.0895362 -91.78249656 271.8096054 -95.59765625 275.578125 C-98.34325486 278.30308001 -100.99269952 281.05023473 -103.5 284 C-106.96987249 288.08220293 -110.76607661 291.79990301 -114.58007812 295.55615234 C-118.0953351 299.0369678 -121.38323728 302.62930852 -124.5 306.4765625 C-126.18846401 308.19140876 -127.84005551 308.97480094 -130 310 C-126.33635899 299.96824548 -122.42920583 290.09112215 -118.16809082 280.29864502 C-116.51904027 276.50666194 -114.88472113 272.70833391 -113.25 268.91015625 C-112.73194794 267.70706818 -112.73194794 267.70706818 -112.20343018 266.47967529 C-108.15283629 257.05583985 -104.20093769 247.59094042 -100.25 238.125 C-94.03304746 223.2358977 -87.78416194 208.36086378 -81.5 193.5 C-75.30397715 178.84551793 -69.13583763 164.17978323 -63 149.5 C-56.469462 133.87590953 -49.89909713 118.26908104 -43.30426025 102.67202759 C-37.46343539 88.85674116 -31.65725268 75.02739533 -25.875 61.1875 C-17.33790601 40.754189 -8.68697774 20.3699813 0 0 Z " fill="#235CA6" transform="translate(745,151)"/>
</svg>
